<svg width="27" height="28" viewBox="0 0 27 28" fill="none" xmlns="http://www.w3.org/2000/svg">
<path opacity="0.987" fill-rule="evenodd" clip-rule="evenodd" d="M11.546 0.117703C12.9507 -0.0392344 13.7818 -0.0392344 15.2912 0.117703C17.9628 0.513137 20.4395 1.74808 22.363 3.64395C21.0632 4.87259 19.7805 6.11917 18.5152 7.38333C16.092 5.32958 13.3872 4.85554 10.4009 5.9612C8.21024 6.9687 6.68478 8.60137 5.82453 10.8592C4.41876 9.81262 3.0313 8.74167 1.66278 7.64683C1.56768 7.59677 1.45905 7.57844 1.35278 7.59452C3.52666 3.40306 6.92374 0.910141 11.544 0.115766" fill="#F44336"/>
<path opacity="0.997" fill-rule="evenodd" clip-rule="evenodd" d="M1.34899 7.5945C1.45878 7.5777 1.56276 7.59514 1.66093 7.64681C3.02944 8.74165 4.4169 9.8126 5.82268 10.8592C5.60146 11.7389 5.46202 12.6372 5.40611 13.5426C5.45391 14.4184 5.59276 15.278 5.82268 16.1214L1.45361 19.5992C-0.449012 15.6235 -0.483887 11.6219 1.34899 7.5945Z" fill="#FFC107"/>
<path opacity="0.999" fill-rule="evenodd" clip-rule="evenodd" d="M22.1558 23.8114C20.7954 22.6116 19.3712 21.4862 17.8894 20.4401C19.3748 19.3913 20.2764 17.9524 20.5941 16.1234H13.3149V11.0684C17.5129 11.0336 21.7088 11.0691 25.9029 11.175C26.6985 15.4956 25.7795 19.3913 23.1458 22.862C22.8326 23.1949 22.5009 23.5118 22.1558 23.8114Z" fill="#448AFF"/>
<path opacity="0.993" fill-rule="evenodd" clip-rule="evenodd" d="M5.82268 16.1234C7.41143 20.072 10.3241 21.9152 14.5608 21.653C15.7501 21.5154 16.8903 21.0999 17.8894 20.4402C19.3723 21.489 20.7944 22.6127 22.1558 23.8114C19.9987 25.7498 17.2483 26.8999 14.3535 27.0742C13.6958 27.1267 13.0349 27.1267 12.3772 27.0742C7.44565 26.4929 3.80445 24.0013 1.45361 19.5993L5.82268 16.1234Z" fill="#43A047"/>
</svg>
